<svg xmlns="http://www.w3.org/2000/svg" width="226" height="62" fill="none" viewBox="0 0 226 62"><rect width="225" height="61" x=".5" y=".5" fill="#fff" stroke="#E5E9F2" rx="11.5"/><path fill="#EA3333" d="M23.3333 22.75C23.3333 19.527 25.4217 16.9166 28 16.9166C30.5783 16.9166 32.6667 19.527 32.6667 22.75C32.6667 25.9729 30.5783 28.5833 28 28.5833C25.4217 28.5833 23.3333 25.9729 23.3333 22.75ZM33.8333 46.0833H35C36.2833 46.0833 37.3333 44.7708 37.3333 43.1666V36.1958C37.3333 34.5625 36.6217 33.0604 35.455 32.3166C34.9533 31.9958 34.4167 31.6895 33.8333 31.4125V46.0833ZM28.3967 38.7916L31.5 30.5229C30.415 30.2166 29.2483 30.0416 28 30.0416C25.0483 30.0416 22.505 31.0625 20.545 32.3166C19.9757 32.6831 19.4989 33.2396 19.1673 33.9244C18.8357 34.6092 18.6624 35.3954 18.6667 36.1958V46.0833H21.3967C21.14 45.427 21 44.6833 21 43.8958C21 41.0812 22.8317 38.7916 25.0833 38.7916H28.3967ZM25.6667 46.0833L27.3117 41.7083H25.0833C24.115 41.7083 23.3333 42.6854 23.3333 43.8958C23.3333 45.1062 24.115 46.0833 25.0833 46.0833H25.6667Z"/><path fill="gray" d="M71.3728 27.6L66.8728 38.4C66.7928 38.6133 66.6728 38.78 66.5128 38.9C66.3528 39.02 66.1728 39.08 65.9728 39.08C65.6795 39.08 65.4595 39 65.3128 38.84C65.1661 38.6667 65.0861 38.4533 65.0728 38.2C65.0728 38.1067 65.0928 38 65.1328 37.88L70.2128 25.6C70.3061 25.3733 70.4395 25.2 70.6128 25.08C70.7995 24.96 70.9995 24.9067 71.2128 24.92C71.4128 24.92 71.5995 24.98 71.7728 25.1C71.9461 25.22 72.0728 25.3867 72.1528 25.6L77.1728 37.7C77.2261 37.8333 77.2528 37.9667 77.2528 38.1C77.2528 38.3933 77.1528 38.6333 76.9528 38.82C76.7661 38.9933 76.5528 39.08 76.3128 39.08C76.1128 39.08 75.9261 39.02 75.7528 38.9C75.5928 38.7667 75.4728 38.6 75.3928 38.4L70.8528 27.66L71.3728 27.6ZM67.6728 35.56L68.5728 33.64H74.2328L74.5728 35.56H67.6728ZM87.6048 24.2C87.8982 24.2 88.1382 24.2933 88.3248 24.48C88.5115 24.6667 88.6048 24.9133 88.6048 25.22V37.98C88.6048 38.2733 88.5115 38.52 88.3248 38.72C88.1382 38.9067 87.8982 39 87.6048 39C87.3248 39 87.0848 38.9067 86.8848 38.72C86.6982 38.52 86.6048 38.2733 86.6048 37.98V36.54L87.0248 36.56C87.0248 36.8 86.9248 37.0733 86.7248 37.38C86.5382 37.6733 86.2782 37.96 85.9448 38.24C85.6115 38.52 85.2182 38.7533 84.7648 38.94C84.3115 39.1133 83.8248 39.2 83.3048 39.2C82.3848 39.2 81.5582 38.9667 80.8248 38.5C80.0915 38.02 79.5115 37.3733 79.0848 36.56C78.6582 35.7333 78.4448 34.7867 78.4448 33.72C78.4448 32.6533 78.6582 31.7133 79.0848 30.9C79.5115 30.0733 80.0848 29.4267 80.8048 28.96C81.5382 28.48 82.3515 28.24 83.2448 28.24C83.8048 28.24 84.3248 28.3333 84.8048 28.52C85.2982 28.7067 85.7248 28.9467 86.0848 29.24C86.4448 29.5333 86.7248 29.8467 86.9248 30.18C87.1248 30.5 87.2248 30.8067 87.2248 31.1L86.6048 31.16V25.22C86.6048 24.9267 86.6982 24.6867 86.8848 24.5C87.0848 24.3 87.3248 24.2 87.6048 24.2ZM83.5248 37.36C84.1648 37.36 84.7182 37.2 85.1848 36.88C85.6648 36.56 86.0382 36.1267 86.3048 35.58C86.5715 35.0333 86.7048 34.4133 86.7048 33.72C86.7048 33.0267 86.5715 32.4067 86.3048 31.86C86.0382 31.3133 85.6648 30.88 85.1848 30.56C84.7048 30.24 84.1515 30.08 83.5248 30.08C82.9115 30.08 82.3648 30.24 81.8848 30.56C81.4182 30.88 81.0448 31.3133 80.7648 31.86C80.4982 32.4067 80.3648 33.0267 80.3648 33.72C80.3648 34.4133 80.4982 35.0333 80.7648 35.58C81.0448 36.1267 81.4182 36.56 81.8848 36.88C82.3648 37.2 82.9115 37.36 83.5248 37.36ZM100.027 24.2C100.32 24.2 100.56 24.2933 100.747 24.48C100.933 24.6667 101.027 24.9133 101.027 25.22V37.98C101.027 38.2733 100.933 38.52 100.747 38.72C100.56 38.9067 100.32 39 100.027 39C99.7467 39 99.5067 38.9067 99.3067 38.72C99.12 38.52 99.0267 38.2733 99.0267 37.98V36.54L99.4467 36.56C99.4467 36.8 99.3467 37.0733 99.1467 37.38C98.96 37.6733 98.7 37.96 98.3667 38.24C98.0334 38.52 97.64 38.7533 97.1867 38.94C96.7334 39.1133 96.2467 39.2 95.7267 39.2C94.8067 39.2 93.98 38.9667 93.2467 38.5C92.5134 38.02 91.9334 37.3733 91.5067 36.56C91.08 35.7333 90.8667 34.7867 90.8667 33.72C90.8667 32.6533 91.08 31.7133 91.5067 30.9C91.9334 30.0733 92.5067 29.4267 93.2267 28.96C93.96 28.48 94.7734 28.24 95.6667 28.24C96.2267 28.24 96.7467 28.3333 97.2267 28.52C97.72 28.7067 98.1467 28.9467 98.5067 29.24C98.8667 29.5333 99.1467 29.8467 99.3467 30.18C99.5467 30.5 99.6467 30.8067 99.6467 31.1L99.0267 31.16V25.22C99.0267 24.9267 99.12 24.6867 99.3067 24.5C99.5067 24.3 99.7467 24.2 100.027 24.2ZM95.9467 37.36C96.5867 37.36 97.14 37.2 97.6067 36.88C98.0867 36.56 98.46 36.1267 98.7267 35.58C98.9934 35.0333 99.1267 34.4133 99.1267 33.72C99.1267 33.0267 98.9934 32.4067 98.7267 31.86C98.46 31.3133 98.0867 30.88 97.6067 30.56C97.1267 30.24 96.5734 30.08 95.9467 30.08C95.3334 30.08 94.7867 30.24 94.3067 30.56C93.84 30.88 93.4667 31.3133 93.1867 31.86C92.92 32.4067 92.7867 33.0267 92.7867 33.72C92.7867 34.4133 92.92 35.0333 93.1867 35.58C93.4667 36.1267 93.84 36.56 94.3067 36.88C94.7867 37.2 95.3334 37.36 95.9467 37.36ZM115.255 25C115.962 25 116.615 25.1933 117.215 25.58C117.815 25.9533 118.295 26.4667 118.655 27.12C119.015 27.7733 119.195 28.5067 119.195 29.32C119.195 30.1333 119.015 30.8733 118.655 31.54C118.295 32.1933 117.815 32.72 117.215 33.12C116.615 33.5067 115.962 33.7 115.255 33.7H111.395L111.555 33.38V37.98C111.555 38.2733 111.462 38.52 111.275 38.72C111.102 38.9067 110.868 39 110.575 39C110.295 39 110.062 38.9067 109.875 38.72C109.702 38.52 109.615 38.2733 109.615 37.98V26.02C109.615 25.7267 109.715 25.4867 109.915 25.3C110.115 25.1 110.355 25 110.635 25H115.255ZM115.255 31.78C115.602 31.78 115.915 31.6667 116.195 31.44C116.488 31.2133 116.722 30.9133 116.895 30.54C117.082 30.1667 117.175 29.76 117.175 29.32C117.175 28.88 117.082 28.48 116.895 28.12C116.722 27.76 116.488 27.4733 116.195 27.26C115.915 27.0333 115.602 26.92 115.255 26.92H111.355L111.555 26.62V32.04L111.375 31.78H115.255ZM129.929 28.32C130.222 28.32 130.462 28.42 130.649 28.62C130.836 28.8067 130.929 29.0467 130.929 29.34V37.98C130.929 38.2733 130.836 38.52 130.649 38.72C130.462 38.9067 130.222 39 129.929 39C129.649 39 129.409 38.9067 129.209 38.72C129.022 38.52 128.929 38.2733 128.929 37.98V36.54L129.349 36.6C129.349 36.84 129.249 37.1067 129.049 37.4C128.862 37.6933 128.602 37.98 128.269 38.26C127.936 38.5267 127.542 38.7533 127.089 38.94C126.636 39.1133 126.149 39.2 125.629 39.2C124.709 39.2 123.882 38.9667 123.149 38.5C122.416 38.02 121.836 37.3667 121.409 36.54C120.982 35.7133 120.769 34.7733 120.769 33.72C120.769 32.64 120.982 31.6933 121.409 30.88C121.836 30.0533 122.409 29.4067 123.129 28.94C123.862 28.4733 124.676 28.24 125.569 28.24C126.142 28.24 126.669 28.3333 127.149 28.52C127.642 28.7067 128.069 28.9467 128.429 29.24C128.789 29.5333 129.062 29.8467 129.249 30.18C129.449 30.5 129.549 30.8067 129.549 31.1L128.929 31.16V29.34C128.929 29.06 129.022 28.82 129.209 28.62C129.409 28.42 129.649 28.32 129.929 28.32ZM125.849 37.36C126.476 37.36 127.029 37.2 127.509 36.88C127.989 36.56 128.362 36.1267 128.629 35.58C128.896 35.02 129.029 34.4 129.029 33.72C129.029 33.0267 128.896 32.4067 128.629 31.86C128.362 31.3133 127.989 30.88 127.509 30.56C127.029 30.24 126.476 30.08 125.849 30.08C125.236 30.08 124.689 30.24 124.209 30.56C123.742 30.88 123.369 31.3133 123.089 31.86C122.822 32.4067 122.689 33.0267 122.689 33.72C122.689 34.4 122.822 35.02 123.089 35.58C123.369 36.1267 123.742 36.56 124.209 36.88C124.689 37.2 125.236 37.36 125.849 37.36ZM133.591 28.6H138.291C138.558 28.6 138.778 28.6933 138.951 28.88C139.138 29.0533 139.231 29.2733 139.231 29.54C139.231 29.7933 139.138 30.0067 138.951 30.18C138.778 30.3533 138.558 30.44 138.291 30.44H133.591C133.324 30.44 133.098 30.3533 132.911 30.18C132.738 29.9933 132.651 29.7733 132.651 29.52C132.651 29.2533 132.738 29.0333 132.911 28.86C133.098 28.6867 133.324 28.6 133.591 28.6ZM135.691 26C135.984 26 136.224 26.1 136.411 26.3C136.598 26.4867 136.691 26.7267 136.691 27.02V36.3C136.691 36.54 136.731 36.7333 136.811 36.88C136.891 37.0267 136.998 37.1267 137.131 37.18C137.278 37.2333 137.424 37.26 137.571 37.26C137.718 37.26 137.844 37.2333 137.951 37.18C138.071 37.1267 138.211 37.1 138.371 37.1C138.531 37.1 138.678 37.1733 138.811 37.32C138.944 37.4667 139.011 37.6667 139.011 37.92C139.011 38.24 138.838 38.5 138.491 38.7C138.144 38.9 137.771 39 137.371 39C137.144 39 136.878 38.98 136.571 38.94C136.264 38.9 135.964 38.8 135.671 38.64C135.391 38.48 135.158 38.2267 134.971 37.88C134.784 37.52 134.691 37.02 134.691 36.38V27.02C134.691 26.7267 134.784 26.4867 134.971 26.3C135.171 26.1 135.411 26 135.691 26ZM143.326 37.98C143.326 38.2733 143.232 38.52 143.046 38.72C142.859 38.9067 142.619 39 142.326 39C142.046 39 141.806 38.9067 141.606 38.72C141.419 38.52 141.326 38.2733 141.326 37.98V29.42C141.326 29.1267 141.419 28.8867 141.606 28.7C141.806 28.5 142.046 28.4 142.326 28.4C142.619 28.4 142.859 28.5 143.046 28.7C143.232 28.8867 143.326 29.1267 143.326 29.42V37.98ZM142.306 27.08C141.919 27.08 141.639 27.0133 141.466 26.88C141.292 26.7333 141.206 26.4933 141.206 26.16V25.84C141.206 25.5067 141.299 25.2733 141.486 25.14C141.672 25.0067 141.952 24.94 142.326 24.94C142.726 24.94 143.012 25.0133 143.186 25.16C143.359 25.2933 143.446 25.52 143.446 25.84V26.16C143.446 26.5067 143.352 26.7467 143.166 26.88C142.992 27.0133 142.706 27.08 142.306 27.08ZM150.916 39.2C149.809 39.2 148.849 38.9733 148.036 38.52C147.223 38.0533 146.589 37.42 146.136 36.62C145.696 35.8067 145.476 34.88 145.476 33.84C145.476 32.6667 145.709 31.6667 146.176 30.84C146.656 30 147.276 29.36 148.036 28.92C148.796 28.4667 149.603 28.24 150.456 28.24C151.109 28.24 151.729 28.3733 152.316 28.64C152.903 28.8933 153.423 29.2533 153.876 29.72C154.343 30.1733 154.709 30.7133 154.976 31.34C155.243 31.9533 155.383 32.6267 155.396 33.36C155.383 33.6267 155.276 33.8467 155.076 34.02C154.876 34.1933 154.643 34.28 154.376 34.28H146.596L146.116 32.58H153.636L153.256 32.94V32.44C153.229 31.9733 153.076 31.5667 152.796 31.22C152.516 30.86 152.169 30.5867 151.756 30.4C151.343 30.2 150.909 30.1 150.456 30.1C150.056 30.1 149.669 30.1667 149.296 30.3C148.936 30.42 148.609 30.62 148.316 30.9C148.036 31.18 147.809 31.5533 147.636 32.02C147.476 32.4733 147.396 33.04 147.396 33.72C147.396 34.4533 147.549 35.0933 147.856 35.64C148.163 36.1867 148.576 36.6133 149.096 36.92C149.616 37.2133 150.189 37.36 150.816 37.36C151.309 37.36 151.716 37.3133 152.036 37.22C152.356 37.1133 152.623 36.9867 152.836 36.84C153.049 36.6933 153.236 36.5533 153.396 36.42C153.596 36.3 153.796 36.24 153.996 36.24C154.236 36.24 154.436 36.3267 154.596 36.5C154.756 36.66 154.836 36.8533 154.836 37.08C154.836 37.3733 154.689 37.64 154.396 37.88C154.036 38.2267 153.536 38.5333 152.896 38.8C152.269 39.0667 151.609 39.2 150.916 39.2ZM163.077 28.24C164.023 28.24 164.757 28.44 165.277 28.84C165.797 29.2267 166.157 29.7533 166.357 30.42C166.57 31.0733 166.677 31.8067 166.677 32.62V37.98C166.677 38.2733 166.577 38.52 166.377 38.72C166.19 38.9067 165.957 39 165.677 39C165.383 39 165.143 38.9067 164.957 38.72C164.77 38.52 164.677 38.2733 164.677 37.98V32.64C164.677 32.16 164.61 31.7333 164.477 31.36C164.343 30.9733 164.11 30.6667 163.777 30.44C163.457 30.2 163.003 30.08 162.417 30.08C161.87 30.08 161.39 30.2 160.977 30.44C160.563 30.6667 160.237 30.9733 159.997 31.36C159.77 31.7333 159.657 32.16 159.657 32.64V37.98C159.657 38.2733 159.557 38.52 159.357 38.72C159.17 38.9067 158.937 39 158.657 39C158.363 39 158.123 38.9067 157.937 38.72C157.75 38.52 157.657 38.2733 157.657 37.98V29.5C157.657 29.2067 157.75 28.9667 157.937 28.78C158.123 28.58 158.363 28.48 158.657 28.48C158.937 28.48 159.17 28.58 159.357 28.78C159.557 28.9667 159.657 29.2067 159.657 29.5V30.62L159.297 30.82C159.39 30.5267 159.55 30.2333 159.777 29.94C160.017 29.6333 160.303 29.3533 160.637 29.1C160.97 28.8333 161.343 28.6267 161.757 28.48C162.17 28.32 162.61 28.24 163.077 28.24ZM169.314 28.6H174.014C174.28 28.6 174.5 28.6933 174.674 28.88C174.86 29.0533 174.954 29.2733 174.954 29.54C174.954 29.7933 174.86 30.0067 174.674 30.18C174.5 30.3533 174.28 30.44 174.014 30.44H169.314C169.047 30.44 168.82 30.3533 168.634 30.18C168.46 29.9933 168.374 29.7733 168.374 29.52C168.374 29.2533 168.46 29.0333 168.634 28.86C168.82 28.6867 169.047 28.6 169.314 28.6ZM171.414 26C171.707 26 171.947 26.1 172.134 26.3C172.32 26.4867 172.414 26.7267 172.414 27.02V36.3C172.414 36.54 172.454 36.7333 172.534 36.88C172.614 37.0267 172.72 37.1267 172.854 37.18C173 37.2333 173.147 37.26 173.294 37.26C173.44 37.26 173.567 37.2333 173.674 37.18C173.794 37.1267 173.934 37.1 174.094 37.1C174.254 37.1 174.4 37.1733 174.534 37.32C174.667 37.4667 174.734 37.6667 174.734 37.92C174.734 38.24 174.56 38.5 174.214 38.7C173.867 38.9 173.494 39 173.094 39C172.867 39 172.6 38.98 172.294 38.94C171.987 38.9 171.687 38.8 171.394 38.64C171.114 38.48 170.88 38.2267 170.694 37.88C170.507 37.52 170.414 37.02 170.414 36.38V27.02C170.414 26.7267 170.507 26.4867 170.694 26.3C170.894 26.1 171.134 26 171.414 26ZM176.939 37.36C176.819 37.1733 176.766 36.96 176.779 36.72C176.792 36.4667 176.932 36.2533 177.199 36.08C177.386 35.96 177.579 35.9133 177.779 35.94C177.992 35.9533 178.192 36.0533 178.379 36.24C178.752 36.6533 179.166 36.98 179.619 37.22C180.086 37.46 180.646 37.58 181.299 37.58C181.566 37.5667 181.839 37.5267 182.119 37.46C182.399 37.38 182.639 37.2467 182.839 37.06C183.039 36.86 183.139 36.5733 183.139 36.2C183.139 35.8667 183.032 35.6 182.819 35.4C182.606 35.2 182.326 35.04 181.979 34.92C181.632 34.7867 181.259 34.6667 180.859 34.56C180.432 34.44 179.999 34.3067 179.559 34.16C179.132 34.0133 178.746 33.8267 178.399 33.6C178.052 33.36 177.766 33.0533 177.539 32.68C177.326 32.3067 177.219 31.8467 177.219 31.3C177.219 30.6733 177.392 30.1333 177.739 29.68C178.099 29.2267 178.559 28.8733 179.119 28.62C179.692 28.3667 180.312 28.24 180.979 28.24C181.366 28.24 181.772 28.2933 182.199 28.4C182.626 28.4933 183.039 28.6467 183.439 28.86C183.839 29.0733 184.186 29.3533 184.479 29.7C184.612 29.8733 184.686 30.08 184.699 30.32C184.726 30.56 184.619 30.7733 184.379 30.96C184.219 31.0933 184.026 31.1533 183.799 31.14C183.572 31.1267 183.386 31.0533 183.239 30.92C182.986 30.6 182.659 30.3533 182.259 30.18C181.859 29.9933 181.406 29.9 180.899 29.9C180.646 29.9 180.379 29.94 180.099 30.02C179.832 30.0867 179.606 30.2133 179.419 30.4C179.232 30.5867 179.139 30.86 179.139 31.22C179.139 31.5533 179.246 31.82 179.459 32.02C179.686 32.22 179.979 32.3867 180.339 32.52C180.699 32.6533 181.092 32.7733 181.519 32.88C181.932 32.9867 182.339 33.1133 182.739 33.26C183.152 33.4067 183.519 33.6 183.839 33.84C184.172 34.0667 184.439 34.3667 184.639 34.74C184.852 35.1 184.959 35.56 184.959 36.12C184.959 36.7733 184.766 37.3333 184.379 37.8C184.006 38.2533 183.526 38.6 182.939 38.84C182.366 39.08 181.759 39.2 181.119 39.2C180.359 39.2 179.599 39.0667 178.839 38.8C178.092 38.52 177.459 38.04 176.939 37.36Z"/><path fill="#4F4F4F" d="M201.718 37.625C201.427 37.3958 201.281 37.1042 201.281 36.75C201.281 36.3958 201.427 36.1042 201.718 35.875L207.907 31L201.718 26.125C201.427 25.8958 201.281 25.6042 201.281 25.25C201.281 24.8958 201.427 24.6042 201.718 24.375C202.009 24.1458 202.379 24.0312 202.829 24.0312C203.278 24.0312 203.649 24.1458 203.94 24.375L211.24 30.125C211.399 30.25 211.512 30.3854 211.578 30.5312C211.644 30.6771 211.677 30.8333 211.677 31C211.677 31.1667 211.644 31.3229 211.578 31.4688C211.512 31.6146 211.399 31.75 211.24 31.875L203.94 37.625C203.649 37.8542 203.278 37.9688 202.829 37.9688C202.379 37.9688 202.009 37.8542 201.718 37.625Z"/></svg>