<svg xmlns="http://www.w3.org/2000/svg" width="68" height="68" fill="none" viewBox="0 0 68 68"><g filter="url(#filter0_d_68_1061)"><circle cx="34" cy="30" r="28" fill="#fff"/></g><path fill="#4169E1" d="M24.6667 23C24.6667 22.6906 24.7896 22.3939 25.0084 22.1751C25.2272 21.9563 25.5239 21.8334 25.8333 21.8334H42.1667C42.4761 21.8334 42.7728 21.9563 42.9916 22.1751C43.2104 22.3939 43.3333 22.6906 43.3333 23C43.3333 23.3095 43.2104 23.6062 42.9916 23.825C42.7728 24.0438 42.4761 24.1667 42.1667 24.1667H25.8333C25.5239 24.1667 25.2272 24.0438 25.0084 23.825C24.7896 23.6062 24.6667 23.3095 24.6667 23ZM24.6667 37C24.6667 36.6906 24.7896 36.3939 25.0084 36.1751C25.2272 35.9563 25.5239 35.8334 25.8333 35.8334H42.1667C42.4761 35.8334 42.7728 35.9563 42.9916 36.1751C43.2104 36.3939 43.3333 36.6906 43.3333 37C43.3333 37.3095 43.2104 37.6062 42.9916 37.825C42.7728 38.0438 42.4761 38.1667 42.1667 38.1667H25.8333C25.5239 38.1667 25.2272 38.0438 25.0084 37.825C24.7896 37.6062 24.6667 37.3095 24.6667 37ZM25.8333 28.8334C25.5239 28.8334 25.2272 28.9563 25.0084 29.1751C24.7896 29.3939 24.6667 29.6906 24.6667 30C24.6667 30.3095 24.7896 30.6062 25.0084 30.825C25.2272 31.0438 25.5239 31.1667 25.8333 31.1667H35.1667C35.4761 31.1667 35.7728 31.0438 35.9916 30.825C36.2104 30.6062 36.3333 30.3095 36.3333 30C36.3333 29.6906 36.2104 29.3939 35.9916 29.1751C35.7728 28.9563 35.4761 28.8334 35.1667 28.8334H25.8333Z"/><defs><filter id="filter0_d_68_1061" width="68" height="68" x="0" y="0" color-interpolation-filters="sRGB" filterUnits="userSpaceOnUse"><feFlood flood-opacity="0" result="BackgroundImageFix"/><feColorMatrix in="SourceAlpha" result="hardAlpha" type="matrix" values="0 0 0 0 0 0 0 0 0 0 0 0 0 0 0 0 0 0 127 0"/><feOffset dy="4"/><feGaussianBlur stdDeviation="3"/><feComposite in2="hardAlpha" operator="out"/><feColorMatrix type="matrix" values="0 0 0 0 0.387431 0 0 0 0 0.454038 0 0 0 0 0.583333 0 0 0 0.15 0"/><feBlend in2="BackgroundImageFix" mode="normal" result="effect1_dropShadow_68_1061"/><feBlend in="SourceGraphic" in2="effect1_dropShadow_68_1061" mode="normal" result="shape"/></filter></defs></svg>