<svg width="348" height="62" viewBox="0 0 348 62" fill="none" xmlns="http://www.w3.org/2000/svg">
<rect x="0.5" y="0.5" width="347" height="61" rx="11.5" fill="white" stroke="#E5E9F2"/>
<path d="M40.9925 16.9748C40.9343 16.145 40.5542 15.3677 39.9291 14.8C39.304 14.2323 38.4804 13.9165 37.625 13.9166H20.375L20.144 13.9239C19.2906 13.9808 18.4912 14.3507 17.9075 14.9588C17.3239 15.5668 16.9995 16.3676 17 17.1993V39.8006L17.0075 40.0252C17.0657 40.8549 17.4457 41.6322 18.0709 42.1999C18.696 42.7676 19.5196 43.0834 20.375 43.0833H31.727L29.477 40.8958H20.375L20.222 40.8856C19.9527 40.8496 19.7058 40.7201 19.5272 40.5209C19.3485 40.3217 19.25 40.0663 19.25 39.802V17.1993L19.2605 17.0506C19.2975 16.7887 19.4307 16.5488 19.6356 16.375C19.8405 16.2013 20.1031 16.1056 20.375 16.1056H37.625L37.778 16.1158C38.0473 16.1517 38.2942 16.2813 38.4728 16.4805C38.6515 16.6797 38.75 16.935 38.75 17.1993V34.0679L40.4885 32.3777C40.6475 32.2231 40.8185 32.086 40.9985 31.9693V17.1979L40.9925 16.9733V16.9748ZM35.432 43.0818C35.394 43.0839 35.356 43.0839 35.318 43.0818C35.0393 43.0682 34.7757 42.9544 34.5785 42.7625L30.8285 39.1137C30.6177 38.9083 30.4994 38.6299 30.4996 38.3398C30.4999 38.0496 30.6188 37.7714 30.83 37.5664C31.0412 37.3614 31.3276 37.2464 31.6261 37.2467C31.9245 37.247 32.2107 37.3625 32.4215 37.5679L35.375 40.4423L42.08 33.9235C42.1838 33.8191 42.308 33.7358 42.4453 33.6786C42.5826 33.6213 42.7302 33.5912 42.8796 33.59C43.029 33.5888 43.1771 33.6166 43.3153 33.6716C43.4535 33.7267 43.5791 33.8079 43.6847 33.9107C43.7903 34.0134 43.8737 34.1356 43.9302 34.27C43.9867 34.4045 44.0151 34.5485 44.0138 34.6937C44.0124 34.839 43.9813 34.9825 43.9223 35.1159C43.8633 35.2493 43.7775 35.3699 43.67 35.4708L36.17 42.7625C35.9732 42.9541 35.7102 43.0679 35.432 43.0818ZM31.76 35.0625C31.669 35.059 31.578 35.059 31.487 35.0625H27.8675C27.5691 35.0625 27.283 34.9472 27.072 34.7421C26.861 34.537 26.7425 34.2588 26.7425 33.9687C26.7425 33.6786 26.861 33.4004 27.072 33.1953C27.283 32.9902 27.5691 32.875 27.8675 32.875H35.3735C35.6719 32.875 35.958 32.9902 36.169 33.1953C36.38 33.4004 36.4985 33.6786 36.4985 33.9687C36.4985 34.2588 36.38 34.537 36.169 34.7421C35.958 34.9472 35.6719 35.0625 35.3735 35.0625H31.76ZM24.5 22.305C24.5 22.6917 24.342 23.0627 24.0607 23.3362C23.7794 23.6096 23.3978 23.7633 23 23.7633C22.6022 23.7633 22.2206 23.6096 21.9393 23.3362C21.658 23.0627 21.5 22.6917 21.5 22.305C21.5 21.9182 21.658 21.5473 21.9393 21.2738C22.2206 21.0003 22.6022 20.8466 23 20.8466C23.3978 20.8466 23.7794 21.0003 24.0607 21.2738C24.342 21.5473 24.5 21.9182 24.5 22.305ZM26.744 22.302C26.744 22.012 26.8625 21.7338 27.0735 21.5286C27.2845 21.3235 27.5706 21.2083 27.869 21.2083H35.375C35.6734 21.2083 35.9595 21.3235 36.1705 21.5286C36.3815 21.7338 36.5 22.012 36.5 22.302C36.5 22.5921 36.3815 22.8703 36.1705 23.0754C35.9595 23.2806 35.6734 23.3958 35.375 23.3958H27.869C27.5706 23.3958 27.2845 23.2806 27.0735 23.0754C26.8625 22.8703 26.744 22.5921 26.744 22.302ZM27.869 27.0416C27.5706 27.0416 27.2845 27.1569 27.0735 27.362C26.8625 27.5671 26.744 27.8453 26.744 28.1354C26.744 28.4255 26.8625 28.7037 27.0735 28.9088C27.2845 29.1139 27.5706 29.2291 27.869 29.2291H35.375C35.5227 29.2291 35.669 29.2008 35.8055 29.1459C35.942 29.0909 36.066 29.0103 36.1705 28.9088C36.275 28.8072 36.3578 28.6866 36.4144 28.5539C36.4709 28.4212 36.5 28.279 36.5 28.1354C36.5 27.9917 36.4709 27.8495 36.4144 27.7168C36.3578 27.5841 36.275 27.4635 36.1705 27.362C36.066 27.2604 35.942 27.1798 35.8055 27.1249C35.669 27.0699 35.5227 27.0416 35.375 27.0416H27.869ZM23 29.5937C23.3978 29.5937 23.7794 29.4401 24.0607 29.1666C24.342 28.8931 24.5 28.5222 24.5 28.1354C24.5 27.7486 24.342 27.3777 24.0607 27.1042C23.7794 26.8307 23.3978 26.677 23 26.677C22.6022 26.677 22.2206 26.8307 21.9393 27.1042C21.658 27.3777 21.5 27.7486 21.5 28.1354C21.5 28.5222 21.658 28.8931 21.9393 29.1666C22.2206 29.4401 22.6022 29.5937 23 29.5937ZM24.5 33.9658C24.5 34.3526 24.342 34.7235 24.0607 34.997C23.7794 35.2705 23.3978 35.4241 23 35.4241C22.6022 35.4241 22.2206 35.2705 21.9393 34.997C21.658 34.7235 21.5 34.3526 21.5 33.9658C21.5 33.579 21.658 33.2081 21.9393 32.9346C22.2206 32.6611 22.6022 32.5075 23 32.5075C23.3978 32.5075 23.7794 32.6611 24.0607 32.9346C24.342 33.2081 24.5 33.579 24.5 33.9658Z" fill="#10BAAB"/>
<path d="M63.82 34C63.5 34 63.22 33.9067 62.98 33.72C62.74 33.52 62.62 33.2733 62.62 32.98V21.02C62.62 20.7267 62.72 20.4867 62.92 20.3C63.12 20.1 63.36 20 63.64 20H69.28C70 20 70.66 20.18 71.26 20.54C71.86 20.8867 72.34 21.3733 72.7 22C73.0733 22.6133 73.26 23.32 73.26 24.12C73.26 24.6533 73.1533 25.1667 72.94 25.66C72.7267 26.14 72.44 26.5667 72.08 26.94C71.72 27.3133 71.3133 27.5933 70.86 27.78L70.64 27.4C71.0533 27.5467 71.4133 27.76 71.72 28.04C72.0267 28.3067 72.2667 28.6267 72.44 29C72.6267 29.36 72.7267 29.7733 72.74 30.24C72.78 30.6533 72.8133 31 72.84 31.28C72.88 31.5467 72.9333 31.7667 73 31.94C73.0667 32.1133 73.1867 32.2467 73.36 32.34C73.6 32.4733 73.7467 32.6733 73.8 32.94C73.8667 33.2067 73.8133 33.4467 73.64 33.66C73.52 33.82 73.3667 33.9267 73.18 33.98C73.0067 34.02 72.8267 34.0267 72.64 34C72.4533 33.96 72.2933 33.9067 72.16 33.84C71.9467 33.7067 71.7267 33.52 71.5 33.28C71.2867 33.0267 71.1133 32.68 70.98 32.24C70.8467 31.8 70.78 31.22 70.78 30.5C70.78 30.1667 70.7267 29.88 70.62 29.64C70.5133 29.4 70.3667 29.2067 70.18 29.06C69.9933 28.9 69.7733 28.7867 69.52 28.72C69.2667 28.64 68.9867 28.6 68.68 28.6H64.44L64.72 28.2V32.98C64.72 33.2733 64.64 33.52 64.48 33.72C64.32 33.9067 64.1 34 63.82 34ZM64.46 26.86H69.24C69.5467 26.8467 69.84 26.7267 70.12 26.5C70.4133 26.26 70.6467 25.94 70.82 25.54C71.0067 25.14 71.1 24.6867 71.1 24.18C71.1 23.54 70.9067 23.0067 70.52 22.58C70.1467 22.14 69.7 21.92 69.18 21.92H64.5L64.72 21.4V27.28L64.46 26.86ZM85.9956 28.74C85.9956 29.8067 85.7623 30.7533 85.2956 31.58C84.829 32.3933 84.1956 33.0333 83.3956 33.5C82.5956 33.9667 81.6956 34.2 80.6956 34.2C79.6956 34.2 78.7956 33.9667 77.9956 33.5C77.1956 33.0333 76.5556 32.3933 76.0756 31.58C75.609 30.7533 75.3756 29.8067 75.3756 28.74C75.3756 27.66 75.609 26.7133 76.0756 25.9C76.5556 25.0733 77.1956 24.4267 77.9956 23.96C78.7956 23.48 79.6956 23.24 80.6956 23.24C81.6956 23.24 82.5956 23.48 83.3956 23.96C84.1956 24.4267 84.829 25.0733 85.2956 25.9C85.7623 26.7133 85.9956 27.66 85.9956 28.74ZM83.9956 28.74C83.9956 28.0067 83.849 27.3733 83.5556 26.84C83.2623 26.2933 82.8623 25.8667 82.3556 25.56C81.8623 25.24 81.309 25.08 80.6956 25.08C80.0823 25.08 79.5223 25.24 79.0156 25.56C78.509 25.8667 78.109 26.2933 77.8156 26.84C77.5223 27.3733 77.3756 28.0067 77.3756 28.74C77.3756 29.4467 77.5223 30.0733 77.8156 30.62C78.109 31.1667 78.509 31.5933 79.0156 31.9C79.5223 32.2067 80.0823 32.36 80.6956 32.36C81.309 32.36 81.8623 32.2067 82.3556 31.9C82.8623 31.5933 83.2623 31.1667 83.5556 30.62C83.849 30.0733 83.9956 29.4467 83.9956 28.74ZM93.5594 23.24C94.4927 23.24 95.3194 23.4733 96.0394 23.94C96.7727 24.4067 97.3527 25.0533 97.7794 25.88C98.206 26.6933 98.4194 27.6333 98.4194 28.7C98.4194 29.7667 98.206 30.7133 97.7794 31.54C97.3527 32.3667 96.7794 33.02 96.0594 33.5C95.3394 33.9667 94.526 34.2 93.6194 34.2C93.1127 34.2 92.6327 34.12 92.1794 33.96C91.726 33.7867 91.326 33.5733 90.9794 33.32C90.6327 33.0533 90.346 32.7733 90.1194 32.48C89.906 32.1867 89.7727 31.9133 89.7194 31.66L90.2594 31.4V33.14C90.2594 33.42 90.1594 33.66 89.9594 33.86C89.7727 34.0467 89.5394 34.14 89.2594 34.14C88.966 34.14 88.726 34.0467 88.5394 33.86C88.3527 33.6733 88.2594 33.4333 88.2594 33.14V20.22C88.2594 19.9267 88.3527 19.6867 88.5394 19.5C88.726 19.3 88.966 19.2 89.2594 19.2C89.5394 19.2 89.7727 19.3 89.9594 19.5C90.1594 19.6867 90.2594 19.9267 90.2594 20.22V25.84L89.9394 25.66C89.9794 25.4067 90.106 25.1467 90.3194 24.88C90.5327 24.6 90.7994 24.3333 91.1194 24.08C91.4527 23.8267 91.826 23.6267 92.2394 23.48C92.666 23.32 93.106 23.24 93.5594 23.24ZM93.3394 25.08C92.6994 25.08 92.1394 25.24 91.6594 25.56C91.1927 25.88 90.826 26.3133 90.5594 26.86C90.2927 27.3933 90.1594 28.0067 90.1594 28.7C90.1594 29.3933 90.2927 30.02 90.5594 30.58C90.826 31.1267 91.1927 31.56 91.6594 31.88C92.1394 32.2 92.6994 32.36 93.3394 32.36C93.966 32.36 94.5127 32.2 94.9794 31.88C95.446 31.56 95.8127 31.12 96.0794 30.56C96.3594 30 96.4994 29.38 96.4994 28.7C96.4994 28.0067 96.3594 27.3933 96.0794 26.86C95.8127 26.3133 95.446 25.88 94.9794 25.56C94.5127 25.24 93.966 25.08 93.3394 25.08ZM110.761 28.74C110.761 29.8067 110.528 30.7533 110.061 31.58C109.595 32.3933 108.961 33.0333 108.161 33.5C107.361 33.9667 106.461 34.2 105.461 34.2C104.461 34.2 103.561 33.9667 102.761 33.5C101.961 33.0333 101.321 32.3933 100.841 31.58C100.375 30.7533 100.141 29.8067 100.141 28.74C100.141 27.66 100.375 26.7133 100.841 25.9C101.321 25.0733 101.961 24.4267 102.761 23.96C103.561 23.48 104.461 23.24 105.461 23.24C106.461 23.24 107.361 23.48 108.161 23.96C108.961 24.4267 109.595 25.0733 110.061 25.9C110.528 26.7133 110.761 27.66 110.761 28.74ZM108.761 28.74C108.761 28.0067 108.615 27.3733 108.321 26.84C108.028 26.2933 107.628 25.8667 107.121 25.56C106.628 25.24 106.075 25.08 105.461 25.08C104.848 25.08 104.288 25.24 103.781 25.56C103.275 25.8667 102.875 26.2933 102.581 26.84C102.288 27.3733 102.141 28.0067 102.141 28.74C102.141 29.4467 102.288 30.0733 102.581 30.62C102.875 31.1667 103.275 31.5933 103.781 31.9C104.288 32.2067 104.848 32.36 105.461 32.36C106.075 32.36 106.628 32.2067 107.121 31.9C107.628 31.5933 108.028 31.1667 108.321 30.62C108.615 30.0733 108.761 29.4467 108.761 28.74ZM112.885 23.6H117.585C117.852 23.6 118.072 23.6933 118.245 23.88C118.432 24.0533 118.525 24.2733 118.525 24.54C118.525 24.7933 118.432 25.0067 118.245 25.18C118.072 25.3533 117.852 25.44 117.585 25.44H112.885C112.618 25.44 112.392 25.3533 112.205 25.18C112.032 24.9933 111.945 24.7733 111.945 24.52C111.945 24.2533 112.032 24.0333 112.205 23.86C112.392 23.6867 112.618 23.6 112.885 23.6ZM114.985 21C115.278 21 115.518 21.1 115.705 21.3C115.892 21.4867 115.985 21.7267 115.985 22.02V31.3C115.985 31.54 116.025 31.7333 116.105 31.88C116.185 32.0267 116.292 32.1267 116.425 32.18C116.572 32.2333 116.718 32.26 116.865 32.26C117.012 32.26 117.138 32.2333 117.245 32.18C117.365 32.1267 117.505 32.1 117.665 32.1C117.825 32.1 117.972 32.1733 118.105 32.32C118.238 32.4667 118.305 32.6667 118.305 32.92C118.305 33.24 118.132 33.5 117.785 33.7C117.438 33.9 117.065 34 116.665 34C116.438 34 116.172 33.98 115.865 33.94C115.558 33.9 115.258 33.8 114.965 33.64C114.685 33.48 114.452 33.2267 114.265 32.88C114.078 32.52 113.985 32.02 113.985 31.38V22.02C113.985 21.7267 114.078 21.4867 114.265 21.3C114.465 21.1 114.705 21 114.985 21ZM130.826 34.2C129.866 34.2 129.013 34.0667 128.266 33.8C127.52 33.5333 126.806 33.0933 126.126 32.48C125.98 32.3733 125.866 32.2467 125.786 32.1C125.72 31.94 125.686 31.78 125.686 31.62C125.686 31.3667 125.78 31.14 125.966 30.94C126.153 30.74 126.386 30.64 126.666 30.64C126.88 30.64 127.08 30.7133 127.266 30.86C127.773 31.3267 128.3 31.68 128.846 31.92C129.406 32.16 130.06 32.28 130.806 32.28C131.34 32.28 131.826 32.1933 132.266 32.02C132.72 31.8467 133.08 31.6133 133.346 31.32C133.613 31.0267 133.746 30.6867 133.746 30.3C133.746 29.82 133.606 29.4267 133.326 29.12C133.06 28.8 132.666 28.54 132.146 28.34C131.64 28.1267 131.026 27.9467 130.306 27.8C129.64 27.68 129.04 27.5133 128.506 27.3C127.986 27.0867 127.54 26.82 127.166 26.5C126.793 26.1667 126.506 25.7733 126.306 25.32C126.106 24.8667 126.006 24.34 126.006 23.74C126.006 22.9267 126.22 22.2267 126.646 21.64C127.073 21.0533 127.653 20.6 128.386 20.28C129.12 19.96 129.946 19.8 130.866 19.8C131.706 19.8 132.493 19.9333 133.226 20.2C133.96 20.4533 134.553 20.8 135.006 21.24C135.326 21.52 135.486 21.82 135.486 22.14C135.486 22.38 135.386 22.6067 135.186 22.82C135 23.02 134.78 23.12 134.526 23.12C134.34 23.12 134.18 23.0667 134.046 22.96C133.833 22.7333 133.546 22.5333 133.186 22.36C132.826 22.1733 132.44 22.02 132.026 21.9C131.626 21.78 131.24 21.72 130.866 21.72C130.266 21.72 129.753 21.8067 129.326 21.98C128.9 22.14 128.573 22.3667 128.346 22.66C128.12 22.94 128.006 23.2733 128.006 23.66C128.006 24.1133 128.133 24.4867 128.386 24.78C128.653 25.0733 129.02 25.3133 129.486 25.5C129.953 25.6733 130.486 25.8333 131.086 25.98C131.82 26.14 132.473 26.32 133.046 26.52C133.633 26.72 134.126 26.98 134.526 27.3C134.926 27.6067 135.233 27.9933 135.446 28.46C135.66 28.9267 135.766 29.5067 135.766 30.2C135.766 31 135.54 31.7 135.086 32.3C134.633 32.9 134.033 33.3667 133.286 33.7C132.553 34.0333 131.733 34.2 130.826 34.2ZM142.665 23.24C143.385 23.24 144.025 23.32 144.585 23.48C145.145 23.6267 145.579 23.84 145.885 24.12C146.205 24.3867 146.365 24.7 146.365 25.06C146.365 25.2867 146.299 25.5 146.165 25.7C146.032 25.8867 145.832 25.98 145.565 25.98C145.379 25.98 145.219 25.9467 145.085 25.88C144.965 25.8133 144.852 25.7333 144.745 25.64C144.639 25.5467 144.505 25.4533 144.345 25.36C144.199 25.28 143.979 25.2133 143.685 25.16C143.405 25.1067 143.152 25.08 142.925 25.08C142.219 25.08 141.605 25.24 141.085 25.56C140.579 25.88 140.179 26.3133 139.885 26.86C139.605 27.4067 139.465 28.0267 139.465 28.72C139.465 29.4133 139.605 30.0333 139.885 30.58C140.179 31.1267 140.572 31.56 141.065 31.88C141.572 32.2 142.159 32.36 142.825 32.36C143.225 32.36 143.552 32.3333 143.805 32.28C144.059 32.2133 144.279 32.1333 144.465 32.04C144.665 31.92 144.832 31.8 144.965 31.68C145.112 31.5467 145.312 31.48 145.565 31.48C145.859 31.48 146.079 31.5733 146.225 31.76C146.385 31.9333 146.465 32.1533 146.465 32.42C146.465 32.7133 146.285 33 145.925 33.28C145.579 33.5467 145.112 33.7667 144.525 33.94C143.939 34.1133 143.292 34.2 142.585 34.2C141.545 34.2 140.639 33.96 139.865 33.48C139.105 33 138.512 32.3467 138.085 31.52C137.672 30.6933 137.465 29.76 137.465 28.72C137.465 27.6667 137.685 26.7333 138.125 25.92C138.565 25.0933 139.179 24.44 139.965 23.96C140.752 23.48 141.652 23.24 142.665 23.24ZM153.677 23.3C154.597 23.3 155.31 23.5 155.817 23.9C156.323 24.2867 156.677 24.8133 156.877 25.48C157.09 26.1467 157.197 26.88 157.197 27.68V32.98C157.197 33.2733 157.097 33.52 156.897 33.72C156.71 33.9067 156.477 34 156.197 34C155.903 34 155.663 33.9067 155.477 33.72C155.29 33.52 155.197 33.2733 155.197 32.98V27.68C155.197 27.2133 155.13 26.7867 154.997 26.4C154.877 26.0133 154.657 25.7067 154.337 25.48C154.03 25.2533 153.597 25.14 153.037 25.14C152.517 25.14 152.05 25.2533 151.637 25.48C151.237 25.7067 150.923 26.0133 150.697 26.4C150.483 26.7867 150.377 27.2133 150.377 27.68V32.98C150.377 33.2733 150.277 33.52 150.077 33.72C149.89 33.9067 149.657 34 149.377 34C149.083 34 148.843 33.9067 148.657 33.72C148.47 33.52 148.377 33.2733 148.377 32.98V20.22C148.377 19.9267 148.47 19.6867 148.657 19.5C148.843 19.3 149.083 19.2 149.377 19.2C149.657 19.2 149.89 19.3 150.077 19.5C150.277 19.6867 150.377 19.9267 150.377 20.22V25.68L150.017 25.88C150.11 25.5867 150.263 25.2867 150.477 24.98C150.703 24.6733 150.977 24.3933 151.297 24.14C151.63 23.8867 151.997 23.6867 152.397 23.54C152.797 23.38 153.223 23.3 153.677 23.3ZM164.878 34.2C163.771 34.2 162.811 33.9733 161.998 33.52C161.185 33.0533 160.551 32.42 160.098 31.62C159.658 30.8067 159.438 29.88 159.438 28.84C159.438 27.6667 159.671 26.6667 160.138 25.84C160.618 25 161.238 24.36 161.998 23.92C162.758 23.4667 163.565 23.24 164.418 23.24C165.071 23.24 165.691 23.3733 166.278 23.64C166.865 23.8933 167.385 24.2533 167.838 24.72C168.305 25.1733 168.671 25.7133 168.938 26.34C169.205 26.9533 169.345 27.6267 169.358 28.36C169.345 28.6267 169.238 28.8467 169.038 29.02C168.838 29.1933 168.605 29.28 168.338 29.28H160.558L160.078 27.58H167.598L167.218 27.94V27.44C167.191 26.9733 167.038 26.5667 166.758 26.22C166.478 25.86 166.131 25.5867 165.718 25.4C165.305 25.2 164.871 25.1 164.418 25.1C164.018 25.1 163.631 25.1667 163.258 25.3C162.898 25.42 162.571 25.62 162.278 25.9C161.998 26.18 161.771 26.5533 161.598 27.02C161.438 27.4733 161.358 28.04 161.358 28.72C161.358 29.4533 161.511 30.0933 161.818 30.64C162.125 31.1867 162.538 31.6133 163.058 31.92C163.578 32.2133 164.151 32.36 164.778 32.36C165.271 32.36 165.678 32.3133 165.998 32.22C166.318 32.1133 166.585 31.9867 166.798 31.84C167.011 31.6933 167.198 31.5533 167.358 31.42C167.558 31.3 167.758 31.24 167.958 31.24C168.198 31.24 168.398 31.3267 168.558 31.5C168.718 31.66 168.798 31.8533 168.798 32.08C168.798 32.3733 168.651 32.64 168.358 32.88C167.998 33.2267 167.498 33.5333 166.858 33.8C166.231 34.0667 165.571 34.2 164.878 34.2ZM180.239 19.2C180.532 19.2 180.772 19.2933 180.959 19.48C181.145 19.6667 181.239 19.9133 181.239 20.22V32.98C181.239 33.2733 181.145 33.52 180.959 33.72C180.772 33.9067 180.532 34 180.239 34C179.959 34 179.719 33.9067 179.519 33.72C179.332 33.52 179.239 33.2733 179.239 32.98V31.54L179.659 31.56C179.659 31.8 179.559 32.0733 179.359 32.38C179.172 32.6733 178.912 32.96 178.579 33.24C178.245 33.52 177.852 33.7533 177.399 33.94C176.945 34.1133 176.459 34.2 175.939 34.2C175.019 34.2 174.192 33.9667 173.459 33.5C172.725 33.02 172.145 32.3733 171.719 31.56C171.292 30.7333 171.079 29.7867 171.079 28.72C171.079 27.6533 171.292 26.7133 171.719 25.9C172.145 25.0733 172.719 24.4267 173.439 23.96C174.172 23.48 174.985 23.24 175.879 23.24C176.439 23.24 176.959 23.3333 177.439 23.52C177.932 23.7067 178.359 23.9467 178.719 24.24C179.079 24.5333 179.359 24.8467 179.559 25.18C179.759 25.5 179.859 25.8067 179.859 26.1L179.239 26.16V20.22C179.239 19.9267 179.332 19.6867 179.519 19.5C179.719 19.3 179.959 19.2 180.239 19.2ZM176.159 32.36C176.799 32.36 177.352 32.2 177.819 31.88C178.299 31.56 178.672 31.1267 178.939 30.58C179.205 30.0333 179.339 29.4133 179.339 28.72C179.339 28.0267 179.205 27.4067 178.939 26.86C178.672 26.3133 178.299 25.88 177.819 25.56C177.339 25.24 176.785 25.08 176.159 25.08C175.545 25.08 174.999 25.24 174.519 25.56C174.052 25.88 173.679 26.3133 173.399 26.86C173.132 27.4067 172.999 28.0267 172.999 28.72C172.999 29.4133 173.132 30.0333 173.399 30.58C173.679 31.1267 174.052 31.56 174.519 31.88C174.999 32.2 175.545 32.36 176.159 32.36ZM192.193 23.48C192.473 23.48 192.706 23.58 192.893 23.78C193.093 23.9667 193.193 24.2067 193.193 24.5V29.76C193.193 31.1467 192.806 32.2333 192.033 33.02C191.26 33.7933 190.166 34.18 188.753 34.18C187.353 34.18 186.266 33.7933 185.493 33.02C184.733 32.2333 184.353 31.1467 184.353 29.76V24.5C184.353 24.2067 184.446 23.9667 184.633 23.78C184.82 23.58 185.06 23.48 185.353 23.48C185.633 23.48 185.866 23.58 186.053 23.78C186.253 23.9667 186.353 24.2067 186.353 24.5V29.76C186.353 30.6267 186.553 31.2733 186.953 31.7C187.366 32.1267 187.966 32.34 188.753 32.34C189.553 32.34 190.16 32.1267 190.573 31.7C190.986 31.2733 191.193 30.6267 191.193 29.76V24.5C191.193 24.2067 191.286 23.9667 191.473 23.78C191.66 23.58 191.9 23.48 192.193 23.48ZM198.134 32.98C198.134 33.2733 198.034 33.52 197.834 33.72C197.648 33.9067 197.414 34 197.134 34C196.854 34 196.614 33.9067 196.414 33.72C196.228 33.52 196.134 33.2733 196.134 32.98V20.22C196.134 19.9267 196.234 19.6867 196.434 19.5C196.634 19.3 196.874 19.2 197.154 19.2C197.448 19.2 197.681 19.3 197.854 19.5C198.041 19.6867 198.134 19.9267 198.134 20.22V32.98ZM205.816 34.2C204.709 34.2 203.749 33.9733 202.936 33.52C202.122 33.0533 201.489 32.42 201.036 31.62C200.596 30.8067 200.376 29.88 200.376 28.84C200.376 27.6667 200.609 26.6667 201.076 25.84C201.556 25 202.176 24.36 202.936 23.92C203.696 23.4667 204.502 23.24 205.356 23.24C206.009 23.24 206.629 23.3733 207.216 23.64C207.802 23.8933 208.322 24.2533 208.776 24.72C209.242 25.1733 209.609 25.7133 209.876 26.34C210.142 26.9533 210.282 27.6267 210.296 28.36C210.282 28.6267 210.176 28.8467 209.976 29.02C209.776 29.1933 209.542 29.28 209.276 29.28H201.496L201.016 27.58H208.536L208.156 27.94V27.44C208.129 26.9733 207.976 26.5667 207.696 26.22C207.416 25.86 207.069 25.5867 206.656 25.4C206.242 25.2 205.809 25.1 205.356 25.1C204.956 25.1 204.569 25.1667 204.196 25.3C203.836 25.42 203.509 25.62 203.216 25.9C202.936 26.18 202.709 26.5533 202.536 27.02C202.376 27.4733 202.296 28.04 202.296 28.72C202.296 29.4533 202.449 30.0933 202.756 30.64C203.062 31.1867 203.476 31.6133 203.996 31.92C204.516 32.2133 205.089 32.36 205.716 32.36C206.209 32.36 206.616 32.3133 206.936 32.22C207.256 32.1133 207.522 31.9867 207.736 31.84C207.949 31.6933 208.136 31.5533 208.296 31.42C208.496 31.3 208.696 31.24 208.896 31.24C209.136 31.24 209.336 31.3267 209.496 31.5C209.656 31.66 209.736 31.8533 209.736 32.08C209.736 32.3733 209.589 32.64 209.296 32.88C208.936 33.2267 208.436 33.5333 207.796 33.8C207.169 34.0667 206.509 34.2 205.816 34.2Z" fill="#808080"/>
<path d="M298.879 37.625C298.431 37.3958 298.207 37.1042 298.207 36.75C298.207 36.3958 298.431 36.1042 298.879 35.875L308.41 31L298.879 26.125C298.431 25.8958 298.207 25.6042 298.207 25.25C298.207 24.8958 298.431 24.6042 298.879 24.375C299.327 24.1458 299.897 24.0312 300.59 24.0312C301.282 24.0312 301.853 24.1458 302.301 24.375L313.542 30.125C313.787 30.25 313.96 30.3854 314.063 30.5312C314.164 30.6771 314.214 30.8333 314.214 31C314.214 31.1667 314.164 31.3229 314.063 31.4688C313.96 31.6146 313.787 31.75 313.542 31.875L302.301 37.625C301.853 37.8542 301.282 37.9688 300.59 37.9688C299.897 37.9688 299.327 37.8542 298.879 37.625Z" fill="#4F4F4F"/>
</svg>
